<svg xmlns="http://www.w3.org/2000/svg" viewBox="0 0 319.95 380.32">
  <!-- Lattice trademark. Gradient-filled on purpose: a browser tab strip can be
       light or dark and a favicon cannot follow the app theme, so the brand
       accent keeps the mark legible on either. -->
  <defs>
    <linearGradient id="lattice" x1="0" y1="0" x2="1" y2="1">
      <stop offset="0" stop-color="#0d99ff"/>
      <stop offset="1" stop-color="#9747ff"/>
    </linearGradient>
  </defs>
  <path fill="url(#lattice)" d="M309.26,256.79V123.53c6.37-3.53,10.69-10.31,10.69-18.11,0-11.43-9.26-20.69-20.69-20.69-3.76,0-7.27,1.02-10.3,2.77L180.6,21.96c.03-.42.06-.84.06-1.27,0-11.43-9.26-20.69-20.69-20.69s-20.69,9.26-20.69,20.69c0,.15.02.29.02.43L30.9,87.45c-3.02-1.72-6.5-2.71-10.22-2.71-11.43,0-20.69,9.26-20.69,20.69,0,7.8,4.32,14.58,10.69,18.11v133.26c-6.37,3.53-10.69,10.31-10.69,18.11,0,11.43,9.26,20.69,20.69,20.69,3.74,0,7.23-1.01,10.26-2.74l108.38,65.94c-.01.29-.04.57-.04.85,0,11.43,9.26,20.69,20.69,20.69s20.69-9.26,20.69-20.69c0-.29-.03-.57-.04-.85l108.38-65.94c3.03,1.73,6.52,2.74,10.26,2.74,11.43,0,20.69-9.26,20.69-20.69,0-7.8-4.32-14.58-10.69-18.11ZM159.98,41.37c3.59,0,6.96-.92,9.91-2.52l108.73,65.77c-.01.27-.04.53-.04.8,0,.29.03.57.04.85l-108.38,65.94c-3.03-1.73-6.52-2.74-10.26-2.74s-7.23,1.01-10.26,2.74L41.33,106.28c.01-.29.04-.57.04-.85,0-.31-.03-.6-.05-.91l108.03-66.1c3.11,1.86,6.73,2.96,10.62,2.96ZM289,256.95l-108.38-65.94c.01-.29.04-.57.04-.85s-.03-.57-.04-.85l108.38-65.94c.09.05.17.11.26.16v133.26c-.09.05-.17.11-.26.16ZM30.95,123.37l108.38,65.94c-.01.29-.04.57-.04.85s.03.57.04.85l-108.38,65.94c-.09-.05-.17-.11-.26-.16V123.53c.09-.05.17-.11.26-.16ZM41.33,274.04l108.38-65.94c.09.05.17.11.26.16v133.26c-.09.05-.17.11-.26.16l-108.38-65.94c.01-.29.04-.57.04-.85s-.03-.57-.04-.85ZM169.98,341.53v-133.26c.09-.05.17-.11.26-.16l108.38,65.94c-.01.29-.04.57-.04.85s.03.57.04.85l-108.38,65.94c-.09-.05-.17-.11-.26-.16Z"/>
</svg>
